<?xml version="1.0" encoding="utf-8"?>
<!-- Generator: Adobe Illustrator 16.0.0, SVG Export Plug-In . SVG Version: 6.00 Build 0)  -->
<!DOCTYPE svg PUBLIC "-//W3C//DTD SVG 1.1//EN" "http://www.w3.org/Graphics/SVG/1.1/DTD/svg11.dtd">
<svg version="1.1" id="Layer_1" xmlns="http://www.w3.org/2000/svg" xmlns:xlink="http://www.w3.org/1999/xlink" x="0px" y="0px"
	 width="3000px" height="127.799px" viewBox="0 0 3000 127.799" enable-background="new 0 0 3000 127.799" xml:space="preserve">
<path fill-rule="evenodd" clip-rule="evenodd" fill="#FFE12A" d="M2101.508,34.959c-46.879,0-70.738,15.723-117.617,15.723
	C1815.794,50.682,1743.705,0,1575.609,0c-132.504,0-411.211,87.107-543.715,87.107c-85.113,0-178.229-21.209-251.895-36.426
	S643.669,70.133,553.002,79.466s-284-48-374.667-60.667S0,50.132,0,50.132v77.667h3000V42.382c0,0-97.8,25.332-172.476,11.999
	s-176.948-34.914-278.986-35.998S2321.5,63.899,2220,50.682C2187.543,46.455,2148.915,34.959,2101.508,34.959z"/>
</svg>
